<svg width="40" height="40" xmlns="http://www.w3.org/2000/svg" xmlns:xlink="http://www.w3.org/1999/xlink" overflow="hidden"><defs><clipPath id="clip0"><rect x="448" y="232" width="118" height="115"/></clipPath></defs><g clip-path="url(#clip0)" transform="translate(-448 -232)"><path d="M403.795 482.439C403.795 476.368 406.647 465.974 410.694 457.604 415.293 447.946 423.019 439.024 431.481 433.321 434.517 431.297 437 429.366 437 429.09 437 428.722 434.609 426.974 431.665 425.043 416.948 415.477 405.819 396.713 404.071 378.5L403.519 372.522 407.566 372.798C411.338 372.982 411.614 373.166 411.889 375.741 412.809 386.319 417.5 398.46 424.123 407.198 430.562 415.753 442.703 423.387 451.993 424.583L456.316 425.227 456.04 421.731C455.764 418.328 455.58 418.144 451.533 417.04 444.451 415.293 438.656 411.889 433.229 406.463 425.595 398.736 419.432 385.307 419.432 376.201 419.432 373.074 419.616 372.89 422.467 372.706L425.595 372.522 426.698 378.96C428.262 387.607 432.493 395.793 438.472 401.772 445.37 408.67 450.153 410.694 459.903 410.694 466.802 410.694 468.366 410.326 473.057 407.934 476.092 406.463 480.231 403.243 482.531 400.76 486.486 396.345 491.269 387.515 492.465 382.456L493.016 379.88 462.847 379.88 432.585 379.88 431.665 376.753C431.113 375.005 430.93 373.35 431.205 373.074 431.481 372.798 447.118 372.522 466.066 372.522L500.375 372.522 500.375 376.017C500.375 385.307 494.304 398.644 486.578 406.463 481.243 411.889 475.356 415.293 468.274 417.132L464.043 418.144 463.767 429.274 463.491 440.312 467.446 440.955C472.597 441.783 480.875 446.29 485.566 450.797 493.568 458.524 498.903 469.469 500.099 480.415L500.651 485.658 466.158 485.658C447.21 485.658 431.481 485.382 431.205 485.106 430.93 484.83 431.113 483.175 431.665 481.427L432.585 478.3 462.847 478.3 493.016 478.3 492.465 475.816C491.085 470.021 486.026 461.099 481.611 456.684 474.528 449.694 469.469 447.486 459.903 447.486 453.465 447.486 451.257 447.854 447.486 449.786 437.368 454.752 428.998 466.526 426.698 479.219L425.595 485.658 422.375 485.658 419.156 485.658 419.708 480.415C420.904 469.561 426.33 458.432 434.149 450.797 438.656 446.474 447.302 441.783 452.361 440.955 456.132 440.404 456.224 440.312 456.224 436.632L456.224 432.953 451.993 433.597C449.602 433.873 444.635 435.621 440.955 437.368 426.055 444.543 414.557 461.467 412.257 479.679L411.614 485.198 407.75 485.474 403.795 485.75 403.795 482.439Z" fill="#6D1B7B" transform="matrix(1.00319 0 0 -1 45.3347 718.671)"/><path d="M508.377 485.014C508.009 484.738 507.733 483.175 507.733 481.519 507.733 476.644 505.158 468.09 501.203 460.179 496.144 449.786 488.233 441.783 478.208 437.092L470.941 433.689 470.941 428.998 470.941 424.399 476 422.283C493.292 415.109 506.17 396.345 507.917 375.741 508.193 373.166 508.469 372.982 512.24 372.798L516.288 372.522 515.736 378.5C513.988 396.989 502.306 416.305 487.314 425.595 484.37 427.434 481.979 428.998 481.979 429.09 481.979 429.182 484.462 430.837 487.406 432.677 495.776 437.828 504.422 447.67 509.113 457.604 513.16 465.974 516.012 476.368 516.012 482.347 516.012 485.566 515.92 485.658 512.516 485.658 510.585 485.658 508.653 485.382 508.377 485.014Z" fill="#6D1B7B" transform="matrix(1.00319 0 0 -1 45.3347 718.671)"/><path d="M463.583 331.59C463.583 314.298 463.675 313.654 465.422 313.654 467.17 313.654 467.262 314.298 467.262 331.59 467.262 348.883 467.17 349.527 465.422 349.527 463.675 349.527 463.583 348.883 463.583 331.59Z" fill="#6D1B7B" transform="matrix(1.00319 0 0 -1 45.3347 718.671)"/><path d="M475.448 338.213C469.101 333.982 467.446 326.347 471.401 319.633 475.908 311.815 485.75 310.803 492.281 317.333 495.776 320.829 496.328 322.668 495.868 328.831 495.132 338.121 483.358 343.548 475.448 338.213ZM486.946 336.189C490.625 334.442 493.016 330.487 493.016 326.072 493.016 323.404 492.281 321.932 489.889 319.541 487.314 316.965 486.118 316.414 482.807 316.414 476.552 316.506 472.781 320.461 472.781 326.991 472.781 331.314 474.068 333.522 477.656 335.729 481.243 337.937 483.083 338.029 486.946 336.189Z" fill="#6D1B7B" transform="matrix(1.00319 0 0 -1 45.3347 718.671)"/><path d="M504.238 338.489C495.224 332.97 495.592 320.093 504.974 315.218 509.021 313.102 515.184 313.654 518.863 316.322L521.53 318.345 521.53 315.954C521.53 314.666 520.887 312.366 520.151 310.895 517.483 305.652 507.457 304.916 503.134 309.515 500.743 311.998 498.535 312.55 498.535 310.619 498.535 309.883 499.455 308.503 500.651 307.399 506.722 301.697 517.299 302.34 522.358 308.687 524.106 310.895 524.29 312.366 524.29 325.244 524.29 337.201 524.106 339.409 522.91 339.409 522.174 339.409 521.53 338.581 521.53 337.569 521.53 335.913 521.346 335.913 518.219 338.029 513.988 340.88 508.469 341.064 504.238 338.489ZM516.747 335.729C520.059 333.706 521.53 330.763 521.53 326.255 521.53 317.609 509.757 313.47 503.778 319.909 500.743 323.22 500.007 326.715 501.663 330.671 503.134 334.166 507.917 337.569 511.413 337.569 512.7 337.569 515.092 336.741 516.747 335.729Z" fill="#6D1B7B" transform="matrix(1.00319 0 0 -1 45.3347 718.671)"/><path d="M533.672 338.581C524.474 332.786 524.934 319.725 534.5 314.758 544.066 309.791 553.724 316.046 553.724 327.267 553.724 331.59 553.356 332.51 550.228 335.913 547.009 339.317 546.089 339.777 541.674 340.053 537.811 340.329 536.063 340.053 533.672 338.581ZM547.377 334.258C554.276 327.635 549.861 316.414 540.386 316.414 532.844 316.414 528.153 323.496 531.004 330.487 534.04 337.569 542.042 339.409 547.377 334.258Z" fill="#6D1B7B" transform="matrix(1.00319 0 0 -1 45.3347 718.671)"/><path d="M0 36.7923 0 0 459.903 0 919.807 0 919.807 36.7923 919.807 73.5845 459.903 73.5845 0 73.5845 0 36.7923ZM128.313 46.5422C130.521 45.5304 131.348 44.7026 130.98 43.7828 130.521 42.4951 130.153 42.4951 127.853 43.6908 124.542 45.3465 122.242 45.4385 120.127 43.8748 117.551 41.9432 119.299 39.7357 124.634 38.172 132.636 35.8725 134.568 31.3654 129.601 26.4904 126.933 23.823 126.565 23.731 121.323 24.1909 115.068 24.7428 114.7 24.9268 115.436 26.8584 115.896 28.0541 116.54 28.1461 119.115 27.3183 123.714 25.9386 128.313 27.4102 128.313 30.3536 128.313 31.8253 127.577 32.9291 126.014 33.6649 115.62 38.4479 115.068 38.9998 116.264 43.7828 117.275 47.646 122.702 48.8417 128.313 46.5422ZM182.306 42.3111 182.582 36.7003 185.801 39.4597C187.549 41.0234 189.848 42.2191 190.86 42.3111 192.332 42.3111 191.964 41.6672 189.02 38.6319L185.433 34.9527 189.296 29.4338C192.975 24.1909 193.067 23.915 191.136 23.915 189.664 23.915 188.192 25.2027 186.261 28.0541 184.789 30.3536 183.226 32.1932 182.858 32.1932 182.398 32.1932 182.122 30.3536 182.122 28.0541 182.122 24.5588 181.846 23.915 180.282 23.915 178.535 23.915 178.443 24.5588 178.443 35.8725 178.443 47.0941 178.535 47.83 180.282 47.83 181.754 47.83 182.03 47.0941 182.306 42.3111ZM57.8558 39.9196C58.9596 38.5399 59.7874 36.2404 59.7874 34.8607 59.7874 32.1932 59.7874 32.1932 53.8087 32.1932 47.1861 32.1932 46.1743 31.0895 49.7615 27.5022 51.3252 25.9386 52.521 25.6626 55.7403 26.0305 59.6955 26.3985 61.1672 25.5706 58.3158 24.4669 51.9691 21.9834 45.9903 26.2145 45.9903 33.205 45.9903 41.2073 53.5328 45.4385 57.8558 39.9196ZM99.799 40.1956C101.639 38.7239 102.374 36.9762 102.742 33.8489 103.202 29.9857 103.018 29.2499 100.443 26.6744 96.6717 22.9952 92.8085 22.9032 89.1293 26.5824 81.4029 34.4008 91.6128 47.3701 99.799 40.1956ZM157.747 40.0116C159.586 38.264 160.046 36.8843 160.046 33.113 160.046 27.3183 157.287 23.915 152.504 23.915 146.433 23.915 143.03 29.0659 144.502 35.8725 145.973 42.2191 153.24 44.5187 157.747 40.0116Z" fill="#6D1B7B" transform="matrix(1.00319 0 0 -1 45.3347 718.671)"/><path d="M90.693 38.9998C86.0939 34.4008 88.7614 25.7546 94.7401 25.7546 99.1552 25.7546 102.099 30.3536 100.811 35.3206 99.6151 40.1956 93.9123 42.2191 90.693 38.9998Z" fill="#6D1B7B" transform="matrix(1.00319 0 0 -1 45.3347 718.671)"/></g></svg>